<?xml version="1.0" encoding="UTF-8" standalone="no"?>
<svg
   xmlns:dc="http://purl.org/dc/elements/1.1/"
   xmlns:cc="http://creativecommons.org/ns#"
   xmlns:rdf="http://www.w3.org/1999/02/22-rdf-syntax-ns#"
   xmlns:svg="http://www.w3.org/2000/svg"
   xmlns="http://www.w3.org/2000/svg"
   viewBox="0 0 1280 720"
   height="720"
   width="1280"
   xml:space="preserve"
   id="svg4504"
   version="1.1"><metadata
     id="metadata4510"><rdf:RDF><cc:Work
         rdf:about=""><dc:format>image/svg+xml</dc:format><dc:type
           rdf:resource="http://purl.org/dc/dcmitype/StillImage" /><dc:title></dc:title></cc:Work></rdf:RDF></metadata><defs
     id="defs4508"><clipPath
       id="clipPath4520"
       clipPathUnits="userSpaceOnUse"><path
         style="clip-rule:evenodd"
         id="path4518"
         d="M 0,1.2207e-4 H 960 V 540.00012 H 0 Z" /></clipPath><clipPath
       id="clipPath4530"
       clipPathUnits="userSpaceOnUse"><path
         style="clip-rule:evenodd"
         id="path4528"
         d="M 1.4305e-5,0 H 960.00001 V 540 H 1.4305e-5 Z" /></clipPath><clipPath
       id="clipPath4542"
       clipPathUnits="userSpaceOnUse"><path
         style="clip-rule:evenodd"
         id="path4540"
         d="M 1.4305e-5,0 H 960.00001 V 540 H 1.4305e-5 Z" /></clipPath><clipPath
       id="clipPath4554"
       clipPathUnits="userSpaceOnUse"><path
         style="clip-rule:evenodd"
         id="path4552"
         d="M 1.4305e-5,0 H 960.00001 V 540 H 1.4305e-5 Z" /></clipPath><clipPath
       id="clipPath4566"
       clipPathUnits="userSpaceOnUse"><path
         style="clip-rule:evenodd"
         id="path4564"
         d="M -1.2207e-4,540 H 960 V 1.2207e-4 L -6.1035e-5,1.8311e-4" /></clipPath><clipPath
       id="clipPath4576"
       clipPathUnits="userSpaceOnUse"><path
         style="clip-rule:evenodd"
         id="path4574"
         d="M 1.2207e-4,540 H 960 V 1.8311e-4 H 1.8311e-4" /></clipPath><clipPath
       id="clipPath4586"
       clipPathUnits="userSpaceOnUse"><path
         style="clip-rule:evenodd"
         id="path4584"
         d="M 1.4305e-5,0 H 960.00001 V 540 H 1.4305e-5 Z" /></clipPath><clipPath
       id="clipPath4598"
       clipPathUnits="userSpaceOnUse"><path
         style="clip-rule:evenodd"
         id="path4596"
         d="M 1.4305e-5,0 H 960.00001 V 540 H 1.4305e-5 Z" /></clipPath><clipPath
       id="clipPath4610"
       clipPathUnits="userSpaceOnUse"><path
         style="clip-rule:evenodd"
         id="path4608"
         d="M 1.4305e-5,0 H 960.00001 V 540 H 1.4305e-5 Z" /></clipPath><clipPath
       id="clipPath4622"
       clipPathUnits="userSpaceOnUse"><path
         style="clip-rule:evenodd"
         id="path4620"
         d="M 1.4305e-5,0 H 960.00001 V 540 H 1.4305e-5 Z" /></clipPath><clipPath
       id="clipPath4634"
       clipPathUnits="userSpaceOnUse"><path
         style="clip-rule:evenodd"
         id="path4632"
         d="M 1.4305e-5,0 H 960.00001 V 540 H 1.4305e-5 Z" /></clipPath><clipPath
       id="clipPath4646"
       clipPathUnits="userSpaceOnUse"><path
         style="clip-rule:evenodd"
         id="path4644"
         d="M 1.4305e-5,0 H 960.00001 V 540 H 1.4305e-5 Z" /></clipPath><clipPath
       id="clipPath4662"
       clipPathUnits="userSpaceOnUse"><path
         style="clip-rule:evenodd"
         id="path4660"
         d="M 1.4305e-5,0 H 960.00001 V 540 H 1.4305e-5 Z" /></clipPath><clipPath
       id="clipPath4674"
       clipPathUnits="userSpaceOnUse"><path
         style="clip-rule:evenodd"
         id="path4672"
         d="M 1.4305e-5,0 H 960.00001 V 540 H 1.4305e-5 Z" /></clipPath><clipPath
       id="clipPath4686"
       clipPathUnits="userSpaceOnUse"><path
         style="clip-rule:evenodd"
         id="path4684"
         d="M 1.4305e-5,0 H 960.00001 V 540 H 1.4305e-5 Z" /></clipPath><clipPath
       id="clipPath4698"
       clipPathUnits="userSpaceOnUse"><path
         style="clip-rule:evenodd"
         id="path4696"
         d="M 1.4305e-5,0 H 960.00001 V 540 H 1.4305e-5 Z" /></clipPath><clipPath
       id="clipPath4710"
       clipPathUnits="userSpaceOnUse"><path
         style="clip-rule:evenodd"
         id="path4708"
         d="M 1.4305e-5,0 H 960.00001 V 540 H 1.4305e-5 Z" /></clipPath><clipPath
       id="clipPath4724"
       clipPathUnits="userSpaceOnUse"><path
         style="clip-rule:evenodd"
         id="path4722"
         d="M 1.4305e-5,0 H 960.00001 V 540 H 1.4305e-5 Z" /></clipPath><clipPath
       id="clipPath4736"
       clipPathUnits="userSpaceOnUse"><path
         style="clip-rule:evenodd"
         id="path4734"
         d="M 1.4305e-5,0 H 960.00001 V 540 H 1.4305e-5 Z" /></clipPath><clipPath
       id="clipPath4748"
       clipPathUnits="userSpaceOnUse"><path
         style="clip-rule:evenodd"
         id="path4746"
         d="M 1.4305e-5,0 H 960.00001 V 540 H 1.4305e-5 Z" /></clipPath><clipPath
       id="clipPath4760"
       clipPathUnits="userSpaceOnUse"><path
         style="clip-rule:evenodd"
         id="path4758"
         d="M 1.4305e-5,0 H 960.00001 V 540 H 1.4305e-5 Z" /></clipPath><clipPath
       id="clipPath4772"
       clipPathUnits="userSpaceOnUse"><path
         style="clip-rule:evenodd"
         id="path4770"
         d="M 1.4305e-5,0 H 960.00001 V 540 H 1.4305e-5 Z" /></clipPath><clipPath
       id="clipPath4784"
       clipPathUnits="userSpaceOnUse"><path
         style="clip-rule:evenodd"
         id="path4782"
         d="M 1.4305e-5,0 H 960.00001 V 540 H 1.4305e-5 Z" /></clipPath><clipPath
       id="clipPath4796"
       clipPathUnits="userSpaceOnUse"><path
         style="clip-rule:evenodd"
         id="path4794"
         d="M 1.4305e-5,0 H 960.00001 V 540 H 1.4305e-5 Z" /></clipPath><clipPath
       id="clipPath4808"
       clipPathUnits="userSpaceOnUse"><path
         style="clip-rule:evenodd"
         id="path4806"
         d="M 1.4305e-5,0 H 960.00001 V 540 H 1.4305e-5 Z" /></clipPath></defs><g
     transform="matrix(1.3333333,0,0,-1.3333333,0,720)"
     id="g4512"><g
       id="g4514"><g
         clip-path="url(#clipPath4520)"
         id="g4516"><path
           id="path4522"
           style="fill:#ffffff;fill-opacity:1;fill-rule:evenodd;stroke:none"
           d="M 0,6.1035e-5 H 960 V 540.00006 H 0 Z" /></g></g><g
       id="g4524"><g
         clip-path="url(#clipPath4530)"
         id="g4526"><text
           id="text4534"
           style="font-variant:normal;font-weight:normal;font-size:18px;font-family:Calibri;-inkscape-font-specification:Calibri;writing-mode:lr-tb;fill:#000000;fill-opacity:1;fill-rule:nonzero;stroke:none"
           transform="matrix(1,0,0,-1,38.4,352.85)"><tspan
             id="tspan4532"
             y="0"
             x="0 8.7600002 18.959999">TVI</tspan></text>
</g></g><g
       id="g4536"><g
         clip-path="url(#clipPath4542)"
         id="g4538"><text
           id="text4546"
           style="font-variant:normal;font-weight:normal;font-size:18px;font-family:Calibri;-inkscape-font-specification:Calibri;writing-mode:lr-tb;fill:#000000;fill-opacity:1;fill-rule:nonzero;stroke:none"
           transform="matrix(1,0,0,-1,877.08,352.85)"><tspan
             id="tspan4544"
             y="0"
             x="0 8.7659998 19.836">TDS</tspan></text>
</g></g><g
       id="g4548"><g
         clip-path="url(#clipPath4554)"
         id="g4550"><text
           id="text4558"
           style="font-variant:normal;font-weight:normal;font-size:18px;font-family:Calibri;-inkscape-font-specification:Calibri;writing-mode:lr-tb;fill:#000000;fill-opacity:1;fill-rule:nonzero;stroke:none"
           transform="matrix(1,0,0,-1,107.14,352.49)"><tspan
             id="tspan4556"
             y="0"
             x="0 8.2620001 17.747999 27.198 33.245998 40.806">Source</tspan></text>
</g></g><g
       id="g4560"><g
         clip-path="url(#clipPath4566)"
         id="g4562"><path
           id="path4568"
           style="fill:#4472c4;fill-opacity:1;fill-rule:evenodd;stroke:none"
           d="m 72.12,57.72 c 89.95,58.3 81.77,65.97 219.15,85.09 137.38,19.12 472.66,22.38 605.13,29.63 l -824.28,2.52 z" /></g></g><g
       id="g4570"><g
         clip-path="url(#clipPath4576)"
         id="g4572"><path
           id="path4578"
           style="fill:#4472c4;fill-opacity:1;fill-rule:evenodd;stroke:none"
           d="m 72.12,287.28 c 89.95,-58.3 81.77,-65.97 219.15,-85.09 137.38,-19.12 472.66,-22.38 605.13,-29.63 L 72.12,170.04 Z" /></g></g><g
       id="g4580"><g
         clip-path="url(#clipPath4586)"
         id="g4582"><text
           id="text4590"
           style="font-variant:normal;font-weight:normal;font-size:18px;font-family:Calibri;-inkscape-font-specification:Calibri;writing-mode:lr-tb;fill:#ffffff;fill-opacity:1;fill-rule:nonzero;stroke:none"
           transform="matrix(1,0,0,-1,88.368,169.03)"><tspan
             id="tspan4588"
             y="0"
             x="0 11.628 21.077999 35.495998 44.945999 53.964001 60.245998 64.314003 73.800003 79.290001 83.466003 92.232002 103.302 111.564 118.602 122.67 131.22 137.25 141.31799 150.282 158.90401 166.51801 175.968 180.162 184.248 193.12199 201.168 210.132">Number of TDSs at each level</tspan></text>
</g></g><g
       id="g4592"><g
         clip-path="url(#clipPath4598)"
         id="g4594"><text
           id="text4602"
           style="font-variant:normal;font-weight:normal;font-size:18px;font-family:Calibri;-inkscape-font-specification:Calibri;writing-mode:lr-tb;fill:#000000;fill-opacity:1;fill-rule:nonzero;stroke:none"
           transform="matrix(1,0,0,-1,702.19,317.81)"><tspan
             id="tspan4600"
             y="0"
             x="0 8.2620001 12.402 21.726">Flow</tspan></text>
</g></g><g
       id="g4604"><g
         clip-path="url(#clipPath4610)"
         id="g4606"><text
           id="text4614"
           style="font-style:italic;font-variant:normal;font-weight:normal;font-size:18px;font-family:Calibri;-inkscape-font-specification:Calibri-Italic;writing-mode:lr-tb;fill:#000000;fill-opacity:1;fill-rule:nonzero;stroke:none"
           transform="matrix(1,0,0,-1,571.49,287.81)"><tspan
             id="tspan4612"
             y="0"
             x="0 4.5359998 13.788 17.856001 26.496 35.748001 43.181999 52.433998 56.610001 63.936001 73.188004 80.136002 88.739998 92.952003 99.935997 104.094 111.096 118.368 126.972 136.224 145.476 151.64999 155.68201 164.916 169.218 175.248 184.5 193.104 199.224 207.828 211.896 221.14799 229.806 238.41 247.662 254.664 258.73199 264.492 273.72601 277.92001 287.172 295.776">In each case / scenario there needs to be </tspan></text>
</g></g><g
       id="g4616"><g
         clip-path="url(#clipPath4622)"
         id="g4618"><text
           id="text4626"
           style="font-style:italic;font-variant:normal;font-weight:normal;font-size:18px;font-family:Calibri;-inkscape-font-specification:Calibri-Italic;writing-mode:lr-tb;fill:#000000;fill-opacity:1;fill-rule:nonzero;stroke:none"
           transform="matrix(1,0,0,-1,569.33,266.21)"><tspan
             id="tspan4624"
             y="0"
             x="0 9.2519999 13.32 22.572001 31.176001 36.702 40.787998 50.040001 54.108002 60.138 64.188004 73.421997 82.674004 86.975998 96.209999 101.7 105.768 111.798 121.05 129.65401 133.722 137.862 146.37601 154.40401 163.008 167.14799 171.32401 180.576 186.606 190.746 203.616 212.868 216.89999 224.388 233.586 237.76199 243.79201 253.04401 261.64801 265.82401 274.086 278.22601 287.298 300.168">a definition of the level at which the Flow </tspan></text>
</g></g><g
       id="g4628"><g
         clip-path="url(#clipPath4634)"
         id="g4630"><text
           id="text4638"
           style="font-style:italic;font-variant:normal;font-weight:normal;font-size:18px;font-family:Calibri;-inkscape-font-specification:Calibri-Italic;writing-mode:lr-tb;fill:#000000;fill-opacity:1;fill-rule:nonzero;stroke:none"
           transform="matrix(1,0,0,-1,574.01,244.61)"><tspan
             id="tspan4636"
             y="0"
             x="0 4.5359998 15.606 19.782 26.784 30.816 36.846001 43.776001 48.312 52.380001 56.952 62.981998 67.050003 74.358002 83.610001 92.862 97.019997 106.272 114.876 119.088 128.34 132.408 141.66 148.968 157.57201 166.82401 171.036 180.28799 189.162 197.20799 210.078 219.33 227.93401 234.036 242.64 246.85201 250.938 260.19 264.366 270.396 279.64801 283.67999 290.68201">ID sits. It can be placed anywhere in this </tspan></text>
</g></g><g
       id="g4640"><g
         clip-path="url(#clipPath4646)"
         id="g4642"><text
           id="text4650"
           style="font-style:italic;font-variant:normal;font-weight:normal;font-size:18.02400017px;font-family:Calibri;-inkscape-font-specification:Calibri-Italic;writing-mode:lr-tb;fill:#000000;fill-opacity:1;fill-rule:nonzero;stroke:none"
           transform="matrix(1,0,0,-1,695.95,223.01)"><tspan
             id="tspan4648"
             y="0"
             x="0 6.12816 15.392496 24.656832 33.849072 42.464542">range.</tspan></text>
</g></g><path
       id="path4652"
       style="fill:none;stroke:#4472c4;stroke-width:2.27999997;stroke-linecap:butt;stroke-linejoin:miter;stroke-miterlimit:10;stroke-dasharray:none;stroke-opacity:1"
       d="M 562.38,335.1 V 212.82" /><path
       id="path4654"
       style="fill:none;stroke:#4472c4;stroke-width:2.27999997;stroke-linecap:butt;stroke-linejoin:miter;stroke-miterlimit:10;stroke-dasharray:none;stroke-opacity:1"
       d="M 877.98,335.1 V 212.82" /><g
       id="g4656"><g
         clip-path="url(#clipPath4662)"
         id="g4658"><text
           id="text4666"
           style="font-variant:normal;font-weight:normal;font-size:12px;font-family:Calibri;-inkscape-font-specification:Calibri;writing-mode:lr-tb;fill:#000000;fill-opacity:1;fill-rule:nonzero;stroke:none"
           transform="matrix(1,0,0,-1,36.456,481.94)"><tspan
             id="tspan4664"
             y="0"
             x="0 6.948 9.7080002 12.468 15.228 21.072001 28.535999 34.043999 38.736 41.484001 47.124001 51.192001 53.832001 57.900002 64.248001 67.008003 71.699997 74.328003 77.087997 83.064003 88.367996 94.344002 97.103996 99.767998 104.58 110.328 116.676 123.024 129 134.772 138.96001 141.37199 145.44 151.78799 157.76401 160.308 165 170.748 180.336 186.336 191.14799">All TDSs at this level &quot;appear the same&quot; </tspan></text>
</g></g><g
       id="g4668"><g
         clip-path="url(#clipPath4674)"
         id="g4670"><text
           id="text4678"
           style="font-variant:normal;font-weight:normal;font-size:12px;font-family:Calibri;-inkscape-font-specification:Calibri;writing-mode:lr-tb;fill:#000000;fill-opacity:1;fill-rule:nonzero;stroke:none"
           transform="matrix(1,0,0,-1,29.976,467.54)"><tspan
             id="tspan4676"
             y="0"
             x="0 8.5200005 14.868 20.844 27.216 29.856001 34.667999 38.736 44.712002 51.084 57.431999 63.408001 67.391998 73.367996 79.632004 84.311996 86.711998 91.379997 94.127998 98.940002 105.276 111.252 116.196 122.52 128.90401 134.88 141.252 146.064 148.452 152.088 158.412 162.48 168.828 174.804 179.01601 181.536 185.604 191.952 197.7 204.06">when &quot;rendered&quot; / &quot;decoded&quot; (other than </tspan></text>
</g></g><g
       id="g4680"><g
         clip-path="url(#clipPath4686)"
         id="g4682"><text
           id="text4690"
           style="font-variant:normal;font-weight:normal;font-size:12px;font-family:Calibri;-inkscape-font-specification:Calibri;writing-mode:lr-tb;fill:#000000;fill-opacity:1;fill-rule:nonzero;stroke:none"
           transform="matrix(1,0,0,-1,51.696,453.14)"><tspan
             id="tspan4688"
             y="0"
             x="0 6.348 9.1079998 12.708 16.188 22.164 26.148001 32.124001 38.388 43.428001 49.403999 54.096001 56.627998 59.388 65.736 68.375999 74.723999 81.071999 86.82 89.580002 92.339996 96.419998 101.856 104.22 108.888 111.636 117.384 122.46 127.476 133.82401 137.784 143.532 148.608 153.98399 157.62">differences in quality / accuracy).</tspan></text>
</g></g><g
       id="g4692"><g
         clip-path="url(#clipPath4698)"
         id="g4694"><text
           id="text4702"
           style="font-variant:normal;font-weight:normal;font-size:12px;font-family:Calibri;-inkscape-font-specification:Calibri;writing-mode:lr-tb;fill:#000000;fill-opacity:1;fill-rule:nonzero;stroke:none"
           transform="matrix(1,0,0,-1,50.616,438.74)"><tspan
             id="tspan4700"
             y="0"
             x="0 3.0239999 9.3479996 11.988 18.312 22.416 28.764 34.740002 38.952 41.472 49.872002 56.195999 60.312 66.660004 71.351997 74.351997 76.980003 82.727997 85.487999 88.248001 91.008003 95.075996 101.424 107.4 112.092 118.092 120.732 126.576 134.03999 139.548 144.24001 146.98801 152.73599 156.828 162.804">In other words, all these TDSs are </tspan></text>
</g></g><g
       id="g4704"><g
         clip-path="url(#clipPath4710)"
         id="g4706"><text
           id="text4714"
           style="font-variant:normal;font-weight:normal;font-size:12px;font-family:Calibri;-inkscape-font-specification:Calibri;writing-mode:lr-tb;fill:#000000;fill-opacity:1;fill-rule:nonzero;stroke:none"
           transform="matrix(1,0,0,-1,37.296,424.34)"><tspan
             id="tspan4712"
             y="0"
             x="0 4.0799999 10.056 16.427999 20.507999 26.483999 31.176001 37.175999 43.416 47.256001 52.896 56.855999 59.616001 65.940002 72.239998 76.896004 79.416 85.739998 89.484001 92.124001 96.192001 102.54 108.516 111.18 115.872 121.62 131.20799 137.20799 139.95599 144.396 149.31599 155.64 161.94 165.87601 171.85201 178.116 182.54401 186.384">representations of the same “content”.</tspan></text>
</g></g><path
       id="path4716"
       style="fill:#4472c4;fill-opacity:1;fill-rule:nonzero;stroke:none"
       d="m 132.62,416.88 v -38.93 h -1 v 38.93 z m 2.5,-37.93 -3,-6 -3,6 z" /><g
       id="g4718"><g
         clip-path="url(#clipPath4724)"
         id="g4720"><text
           id="text4728"
           style="font-variant:normal;font-weight:normal;font-size:12px;font-family:Calibri;-inkscape-font-specification:Calibri;writing-mode:lr-tb;fill:#000000;fill-opacity:1;fill-rule:nonzero;stroke:none"
           transform="matrix(1,0,0,-1,463.54,481.63)"><tspan
             id="tspan4726"
             y="0"
             x="0 6.948 9.7080002 12.468 15.228 21.072001 28.535999 34.043999 38.736 41.484001 47.124001 51.192001 53.832001 57.900002 64.248001 67.008003 71.699997 74.328003 77.087997 83.064003 88.367996 94.344002 97.103996 99.767998 105.516 109.608 115.584 118.248 127.836 133.812 143.436 149.784 155.75999 159.744 164.436 167.172 173.496 177.24001 179.88 183.948 190.29601 196.272">All TDSs at this level are members of the </tspan></text>
</g></g><g
       id="g4730"><g
         clip-path="url(#clipPath4736)"
         id="g4732"><text
           id="text4740"
           style="font-variant:normal;font-weight:normal;font-size:12px;font-family:Calibri;-inkscape-font-specification:Calibri;writing-mode:lr-tb;fill:#000000;fill-opacity:1;fill-rule:nonzero;stroke:none"
           transform="matrix(1,0,0,-1,454.42,467.23)"><tspan
             id="tspan4738"
             y="0"
             x="0 4.6919999 10.44 20.028 26.028 28.896 34.403999 40.764 47.112 51.192001 56.231998 62.208 64.751999 71.099998 77.447998 81.515999 84.036003 89.783997 96.143997 102.492 105.252 109.32 112.08 118.404 124.704 130.452 133.21201 135.972 141.36 143.75999 150.108 155.62801 160.908 166.884 169.548 173.616 179.964 185.94 188.48399 193.17599 198.924 208.51199 214.51199">same Source but additionally have the same </tspan></text>
</g></g><g
       id="g4742"><g
         clip-path="url(#clipPath4748)"
         id="g4744"><text
           id="text4752"
           style="font-variant:normal;font-weight:normal;font-size:12px;font-family:Calibri;-inkscape-font-specification:Calibri;writing-mode:lr-tb;fill:#000000;fill-opacity:1;fill-rule:nonzero;stroke:none"
           transform="matrix(1,0,0,-1,464.74,452.83)"><tspan
             id="tspan4750"
             y="0"
             x="0 6.348 12.696 18.444 21.204 23.964001 28.044001 33.48 35.844002 40.512001 43.152 48.900002 53.976002 58.992001 65.339996 69.300003 75.047997 80.124001 85.5">quality / accuracy </tspan></text>
</g></g><g
       id="g4754"><g
         clip-path="url(#clipPath4760)"
         id="g4756"><text
           id="text4764"
           style="font-variant:normal;font-weight:normal;font-size:12px;font-family:Calibri;-inkscape-font-specification:Calibri;writing-mode:lr-tb;fill:#000000;fill-opacity:1;fill-rule:nonzero;stroke:none"
           transform="matrix(1,0,0,-1,553.06,452.83)"><tspan
             id="tspan4762"
             y="0"
             x="0">–</tspan></text>
</g></g><g
       id="g4766"><g
         clip-path="url(#clipPath4772)"
         id="g4768"><text
           id="text4776"
           style="font-variant:normal;font-weight:normal;font-size:12px;font-family:Calibri;-inkscape-font-specification:Calibri;writing-mode:lr-tb;fill:#000000;fill-opacity:1;fill-rule:nonzero;stroke:none"
           transform="matrix(1,0,0,-1,561.82,452.83)"><tspan
             id="tspan4774"
             y="0"
             x="0 4.0679998 10.416 16.296 21.732 24.336 30.084 32.844002 35.604 38.363998 42.444 48.419998 53.112 59.472 62.231998 66.300003 68.699997 71.459999 77.807999 80.447998 84.515999 90.863998 96.839996">they all result in the </tspan></text>
</g></g><g
       id="g4778"><g
         clip-path="url(#clipPath4784)"
         id="g4780"><text
           id="text4788"
           style="font-variant:normal;font-weight:normal;font-size:12.02400017px;font-family:Calibri;-inkscape-font-specification:Calibri;writing-mode:lr-tb;fill:#000000;fill-opacity:1;fill-rule:nonzero;stroke:none"
           transform="matrix(1,0,0,-1,464.86,438.43)"><tspan
             id="tspan4786"
             y="0"
             x="0 4.7013841 10.46088 20.068056 26.056007 28.905697 33.931728 40.292423 44.368561 50.35651 55.057896 61.045849 67.286301 71.121964 76.761215 80.825325 83.590851 89.927498 96.179977 100.01563 103.04568 105.41441 108.44446 114.75706 117.41436 123.75101 127.83916 134.18784 140.1758 144.37216 146.90923 155.31401 161.65065 165.75084 172.09952 176.8009 179.8069 182.41611 188.1756 190.94112 193.70663">same “presentation”. In other words, all </tspan></text>
</g></g><g
       id="g4790"><g
         clip-path="url(#clipPath4796)"
         id="g4792"><text
           id="text4800"
           style="font-variant:normal;font-weight:normal;font-size:12px;font-family:Calibri;-inkscape-font-specification:Calibri;writing-mode:lr-tb;fill:#000000;fill-opacity:1;fill-rule:nonzero;stroke:none"
           transform="matrix(1,0,0,-1,456.1,424.01)"><tspan
             id="tspan4798"
             y="0"
             x="0 4.0679998 10.416 16.392 21.084 27.084 29.724001 35.568001 43.032001 48.540001 53.231998 55.98 60.060001 66.036003 72.407997 76.487999 82.463997 87.155998 93.155998 99.396004 103.356 105.756 109.824 116.172 122.148 124.692 129.384 135.132 144.72 150.72 153.588 158.604 164.976 170.724 175.416 181.392 187.76401 193.51199 199.87199 206.112 211.12801">these TDSs represent the same “baseband” </tspan></text>
</g></g><g
       id="g4802"><g
         clip-path="url(#clipPath4808)"
         id="g4804"><text
           id="text4812"
           style="font-variant:normal;font-weight:normal;font-size:12px;font-family:Calibri;-inkscape-font-specification:Calibri;writing-mode:lr-tb;fill:#000000;fill-opacity:1;fill-rule:nonzero;stroke:none"
           transform="matrix(1,0,0,-1,546.34,409.61)"><tspan
             id="tspan4810"
             y="0"
             x="0 4.6919999 7.4520001 13.104 19.427999 25.176001 27.936001">signal.</tspan></text>
</g></g><path
       id="path4814"
       style="fill:#4472c4;fill-opacity:1;fill-rule:nonzero;stroke:none"
       d="m 562.22,402 v -51.61 h -1 V 402 Z m 2.5,-50.61 -3,-6 -3,6 z" /></g></svg>